<svg id="2d37486f-15ad-45e1-b9ce-bcad39249fd2" data-name="Layer 1" xmlns="http://www.w3.org/2000/svg" xmlns:xlink="http://www.w3.org/1999/xlink" viewBox="0 0 566.93 566.93"><defs><style>.ab2a9d37-9041-41e4-902f-0927371d74b8{fill:none;}.\39 8360836-e602-4e7b-b6c0-94d712add172{clip-path:url(#8177406b-9848-42a6-a92f-b5bf7b9ea100);}.\34 8c43ad2-5c86-45d9-a594-f5c8d175d6cf{fill:url(#3b6ef844-3fe4-4b3c-a2b0-bba6c4416ac5);}.d5bf1868-b656-4bbb-8d05-896bea0af7d9{fill:#fff;}</style><clipPath id="8177406b-9848-42a6-a92f-b5bf7b9ea100"><rect class="ab2a9d37-9041-41e4-902f-0927371d74b8" width="566.93" height="566.93"/></clipPath><linearGradient id="3b6ef844-3fe4-4b3c-a2b0-bba6c4416ac5" x1="283.46" y1="49.84" x2="283.46" y2="517.09" gradientUnits="userSpaceOnUse"><stop offset="0" stop-color="#f0f0f0"/><stop offset="1" stop-color="#424242"/></linearGradient></defs><title>logo</title><g class="98360836-e602-4e7b-b6c0-94d712add172"><g class="98360836-e602-4e7b-b6c0-94d712add172"><path class="48c43ad2-5c86-45d9-a594-f5c8d175d6cf" d="M515.37,283.46c0,129-103.82,233.63-231.9,233.63S51.56,412.49,51.56,283.46,155.39,49.84,283.47,49.84,515.37,154.44,515.37,283.46Z"/><path class="d5bf1868-b656-4bbb-8d05-896bea0af7d9" d="M311,330.1c.66.34,1.13.61,1.62.82a89,89,0,0,0,33.25,7,135.28,135.28,0,0,0,26.79-2.48,185.73,185.73,0,0,0,42.08-13,47.54,47.54,0,0,0,13.06-7.92c3.88-3.49,6.42-7.64,5.67-13.11A24.09,24.09,0,0,0,430,292c-4.47-7.17-11-10.86-19.39-11.32-6.25-.34-12.2,1.21-18.1,3-6.93,2.08-13.27,5.47-19.59,8.88q-31,16.68-60.16,36.3C312.2,329.19,311.67,329.6,311,330.1Zm-39.39.44c-.78-.9-1.28-1.55-1.86-2.14-5-5.09-11.06-8.72-17.39-11.86-13-6.42-26.83-9.26-41.26-9.49a139.59,139.59,0,0,0-25.58,2.08c-8.58,1.45-17.11,3.17-25.64,4.87a62.28,62.28,0,0,0-12.31,3.61,36.53,36.53,0,0,0-9.55,5.75c-3.69,3.17-5.49,7.13-4.35,12a23.84,23.84,0,0,0,7.12,12.39,66.89,66.89,0,0,0,16.39,10.8A57.89,57.89,0,0,0,183,364.46a86,86,0,0,0,22.69-3.37,181.39,181.39,0,0,0,33-13.21c8.64-4.36,17.15-9,25.71-13.47C266.77,333.19,269.06,331.92,271.61,330.54Zm9.67-20.09.47-.25c0-.68,0-1.36,0-2-.06-3.67-.17-7.33-.17-11,0-4,.11-8,.17-12,.08-4.63.15-9.26.24-13.89,0-2.21.12-4.42.19-6.63.21-6.63.59-13.25.59-19.88,0-6.42-.27-12.85-.64-19.26a129.07,129.07,0,0,0-3.85-25.77,47.67,47.67,0,0,0-9.2-18.61,25.5,25.5,0,0,0-17.91-9.69,63,63,0,0,0-14.26.64A104.44,104.44,0,0,0,213,178.57c-4.9,1.93-9.66,4.09-13.66,7.67-3.54,3.16-5,6.85-3.59,11.48a32.91,32.91,0,0,0,1.63,4.69c2.1,4.28,4.2,8.56,6.53,12.71A198.8,198.8,0,0,0,223,242.46q16.49,20.39,33,40.78a242.62,242.62,0,0,0,20.63,22.95C278.1,307.65,279.71,309,281.28,310.45Zm1.07,37.29L274.26,352c-9.59,5.07-19.11,10.28-28.8,15.16a181.22,181.22,0,0,1-34.65,13.63,103.67,103.67,0,0,1-32.44,3.59,75,75,0,0,1-27.78-7A87.64,87.64,0,0,1,129,363.21c-8-7.09-13.23-15.74-14.55-26.48a32.19,32.19,0,0,1,7.44-25.51c4.31-5.18,9.83-8.63,15.93-11.28,7.53-3.26,15.45-5.24,23.41-7,7.63-1.65,15.3-3.13,23-4.34,5.24-.82,10.57-1.12,15.87-1.51,3.17-.24,6.36-.24,9.53-.25a121.23,121.23,0,0,1,23.88,2.5,4.7,4.7,0,0,0,2.24,0c-.46-.64-.89-1.3-1.38-1.91-5.85-7.26-11.79-14.46-17.55-21.8-7-8.92-14-17.83-20.71-27a129.43,129.43,0,0,1-17.33-31.28,40.07,40.07,0,0,1-2.67-17.09A26.26,26.26,0,0,1,181.75,176c3.87-5,8.91-8.64,14.34-11.76,8.28-4.76,17.31-7.59,26.47-10a91.8,91.8,0,0,1,18.16-3.06c8.93-.51,17.68.24,26,4a47.22,47.22,0,0,1,17.95,14.37c6.44,8.2,10.29,17.62,12.89,27.61a122.83,122.83,0,0,1,3.75,26c.17,4.28.29,8.56.41,12.85.09,3.31.25,6.63.21,9.94-.07,6.64-.25,13.27-.4,19.91-.12,4.76-.31,9.53-.4,14.29-.12,6.36-.16,12.73-.24,19.09-.05,3.25-.14,6.49-.17,9.74,0,1,.14,2,.22,3.27.67-.36,1.16-.57,1.6-.86,14.74-9.93,29.89-19.21,45.35-28,7.57-4.3,15.2-8.5,22.92-12.52a94.18,94.18,0,0,1,27.36-9.34c7.85-1.36,15.67-1.44,23.41.84a42.1,42.1,0,0,1,16.88,9.79,43.51,43.51,0,0,1,13.71,24.76c1.8,9.93-.55,18.77-6.61,26.71-5.69,7.45-13,12.93-21.16,17.37-16.12,8.78-33.44,13.69-51.56,16a150.11,150.11,0,0,1-25.25,1.08,116.77,116.77,0,0,1-39-7.95c-1.47-.58-3-1.11-4.72-1.77.14.59.18,1,.3,1.3,4,12,8.12,24.08,12.13,36.14,1.94,5.83,3.87,11.67,5.58,17.58,1.14,3.92.5,7.58-2.89,10.31a9.45,9.45,0,0,1-14.42-2.78,17.71,17.71,0,0,1-1.3-3c-4.34-13.55-8.51-27.16-13.06-40.63C288,360.7,285.05,354.41,282.35,347.74Z"/></g></g></svg>
